# xmcd
#
# Track frame offsets: 
#        180
#        28874
#        62552
#        111507
#        123853
#        152150
#        187944
#
# Disc length: 2907 seconds
#
# Revision: 0
# Processed by: cddbd v1.4PL0 Copyright (c) Steve Scherf et al.
# Submitted via: ExactAudioCopy v0.95a3
#
DISCID=580b5907
DTITLE=Eric Clapton - Milwaukee Time
DYEAR=1983
DGENRE=Blues
TTITLE0=Late In The Evening
TTITLE1=Blues Power
TTITLE2=Don't Say You Don't Love Me-Ever Loved A Woman
TTITLE3=Ramblin' On My Mind
TTITLE4=Cocaine
TTITLE5=Layla
TTITLE6=Further On Up The Road
EXTD=
EXTT0=
EXTT1=
EXTT2=
EXTT3=
EXTT4=
EXTT5=
EXTT6=
PLAYORDER=
